<?xml version="1.0" encoding="UTF-8"?>
<svg xmlns="http://www.w3.org/2000/svg" viewBox="0 0 24 24">
    <path d="M15.684 0H8.316C1.592 0 0 1.592 0 8.316v7.368C0 22.408 1.592 24 8.316 24h7.368C22.408 24 24 22.408 24 15.684V8.316C24 1.592 22.408 0 15.684 0zm3.692 17.123h-1.744c-.66 0-.862-.525-2.049-1.725-1.033-1.003-1.487-1.137-1.744-1.137-.356 0-.458.102-.458.597v1.575c0 .424-.135.69-1.251.69-1.843 0-3.889-1.117-5.326-3.196-2.167-3.284-2.747-5.748-2.747-6.25 0-.271.102-.525.595-.525h1.744c.44 0 .609.203.779.677.847 2.454 2.27 4.607 2.863 4.607.22 0 .322-.102.322-.661V9.793c-.068-1.186-.695-1.287-.695-1.71 0-.203.17-.407.44-.407h2.745c.373 0 .508.203.508.643v3.473c0 .373.17.508.271.508.22 0 .407-.135.813-.542 1.27-1.422 2.18-3.615 2.18-3.615.119-.271.322-.525.813-.525h1.744c.525 0 .644.271.525.643-.22 1.015-2.354 4.031-2.354 4.031-.186.305-.254.44 0 .78.186.254.796.779 1.202 1.253.745.847 1.32 1.558 1.473 2.049.17.474-.085.72-.576.72z" fill="#4C75A3"/>
</svg> 